<?xml version="1.0" standalone="no"?>
<!DOCTYPE svg PUBLIC "-//W3C//DTD SVG 1.1//EN" "http://www.w3.org/Graphics/SVG/1.1/DTD/svg11.dtd" >
<svg xmlns="http://www.w3.org/2000/svg" xmlns:xlink="http://www.w3.org/1999/xlink" version="1.1" viewBox="-10 0 710 1000">
   <path fill="currentColor"
d="M350 300q70 0 124 43t70 108q45 7 75.5 42t30.5 82q0 52 -36.5 88.5t-88.5 36.5h-175h-150q-62 0 -106 -44t-44 -106q0 -56 36 -97.5t90 -50.5q26 -46 72.5 -74t101.5 -28zM350 335q-50 0 -91 27.5t-61 72.5q-47 1 -80 34.5t-33 80.5q0 48 33.5 81.5t81.5 33.5h325
q37 0 63.5 -26.5t26.5 -63.5t-26.5 -63.5t-63.5 -26.5q-35 0 -61 23l-24 -24q29 -27 68 -33q-16 -51 -59.5 -83.5t-98.5 -32.5z" />
</svg>
