<?xml version="1.0" standalone="no"?>
<!DOCTYPE svg PUBLIC "-//W3C//DTD SVG 1.1//EN" "http://www.w3.org/Graphics/SVG/1.1/DTD/svg11.dtd" >
<svg xmlns="http://www.w3.org/2000/svg" xmlns:xlink="http://www.w3.org/1999/xlink" version="1.1" viewBox="-10 0 710 1000">
   <path fill="currentColor"
d="M350 200q70 0 124 43t70 108q45 7 75.5 42t30.5 82q0 52 -36.5 88.5t-88.5 36.5h-20v-35h20q37 0 63.5 -26.5t26.5 -63.5t-26.5 -63.5t-63.5 -26.5q-35 0 -61 23l-24 -24q29 -27 68 -33q-11 -33 -34 -59.5t-55.5 -41.5t-68.5 -15q-50 0 -91 27.5t-61 72.5q-47 1 -80 34.5
t-33 80.5q0 46 32 79.5t78 35.5v35q-40 -1 -73 -21.5t-52.5 -54.5t-19.5 -74q0 -56 36 -97.5t90 -50.5q26 -46 72.5 -74t101.5 -28zM508 720v15q-16 1 -29.5 9t-21 21.5t-7.5 29.5v5h-15v-5q0 -30 21 -52t52 -23zM368 742q0 4 -1.5 7.5t-4 5.5t-5.5 3.5t-7 1.5
q-7 0 -12.5 -5t-5.5 -13q0 -4 2.5 -8t6.5 -6.5t9 -2.5q7 0 12.5 5t5.5 12zM342 680v-120h16v120h-16zM250 800v-300h15v300h-15zM435 800v-300h15v300h-15zM152 671q48 4 80.5 40t32.5 84v5h-15v-5q0 -42 -28 -73.5t-70 -35.5v-15zM88 682.5q0 7.5 -5.5 12.5t-12.5 5
t-12.5 -5t-5.5 -12.5t5.5 -12.5t12.5 -5t12.5 5t5.5 12.5zM582 727.5q0 7.5 -5 12.5t-12 5t-12 -5t-5 -12q0 -5 2 -9t6 -6.5t9 -2.5q7 0 12 5t5 12.5z" />
</svg>
