<?xml version="1.0" standalone="no"?>
<!DOCTYPE svg PUBLIC "-//W3C//DTD SVG 1.1//EN" "http://www.w3.org/Graphics/SVG/1.1/DTD/svg11.dtd" >
<svg xmlns="http://www.w3.org/2000/svg" xmlns:xlink="http://www.w3.org/1999/xlink" version="1.1" viewBox="-10 0 710 1000">
   <path fill="currentColor"
d="M350 300q11 0 18 1l-165 399h-3q-17 0 -33 -4l163 -395q13 -1 20 -1zM432 318q16 7 30 17l-151 365h-38zM249 328l-141 340q-16 -12 -27 -27l107 -258q25 -34 61 -55zM512 384q14 19 22 39l-114 277h-39zM91 447l-41 100q1 -59 41 -100zM587 467q16 9 28 22l-87 211h-3
h-35zM650 575q0 52 -37 89z" />
</svg>
