<?xml version="1.0" encoding="UTF-8" standalone="no"?>
<svg
   xmlns:dc="http://purl.org/dc/elements/1.1/"
   xmlns:cc="http://creativecommons.org/ns#"
   xmlns:rdf="http://www.w3.org/1999/02/22-rdf-syntax-ns#"
   xmlns:svg="http://www.w3.org/2000/svg"
   xmlns="http://www.w3.org/2000/svg"
   xmlns:sodipodi="http://sodipodi.sourceforge.net/DTD/sodipodi-0.dtd"
   xmlns:inkscape="http://www.inkscape.org/namespaces/inkscape"
   version="1.1"
   viewBox="-10 0 610 610"
   id="svg3835"
   sodipodi:docname="D_WeatherIcons.svg"
   width="610"
   height="610"
   inkscape:version="0.92.3 (2405546, 2018-03-11)">
  <metadata
     id="metadata3841">
    <rdf:RDF>
      <cc:Work
         rdf:about="">
        <dc:format>image/svg+xml</dc:format>
        <dc:type
           rdf:resource="http://purl.org/dc/dcmitype/StillImage" />
        <dc:title></dc:title>
      </cc:Work>
    </rdf:RDF>
  </metadata>
  <defs
     id="defs3839" />
  <sodipodi:namedview
     pagecolor="#ffffff"
     bordercolor="#666666"
     borderopacity="1"
     objecttolerance="10"
     gridtolerance="10"
     guidetolerance="10"
     inkscape:pageopacity="0"
     inkscape:pageshadow="2"
     inkscape:window-width="1920"
     inkscape:window-height="1017"
     id="namedview3837"
     showgrid="false"
     inkscape:zoom="0.236"
     inkscape:cx="-468.30508"
     inkscape:cy="500"
     inkscape:window-x="-8"
     inkscape:window-y="-8"
     inkscape:window-maximized="1"
     inkscape:current-layer="svg3835" />
  <path
     d="m 300,50.677966 q 12,0 25,1 -36,73.000004 -8,149.000004 26,71 93.5,104.5 67.5,33.5 139.5,12.5 -1,19 -5,37 h -1 l -3,15 -5,15 -0.5,1 -0.5,1 q -1,4 -5,12 l -6,14 q -10,20 -23,37 0,1 -0.5,1.5 -0.5,0.5 -1.5,0.5 l -6,8 -1.5,2 q 0,0 -2,2.5 l -2,2 q 0,0 -1.5,2.5 l -7,7 -10,10 -0.5,0.5 -0.5,0.5 q -6,4 -12,10 -5,4 -13,9 -11,8 -13,9 -6,4 -14,8 -14,7 -30,13 -12,4 -23,7 -6,1 -12,3 h -1.5 -0.5 q -5,1 -11,2 l -12,2 h -1 -1 -7 l -5,1 q -16,1 -37,-1 -1,-1 -2,-1 h -2 q -4,0 -9,-1 l -10,-2 h -2 l -0.5,-0.5 -0.5,-0.5 q -8,-1 -11,-2 -1,0 -1.5,-0.5 l -0.5,-0.5 q -17,-4 -30,-10 h -2 q 0,0 -1,-1 -8,-3 -19,-9 -1,0 -1.5,-0.5 -0.5,-0.5 -1.5,-0.5 -5,-3 -8,-5 l -1,-0.5 q 0,0 -2,-0.5 -1,-1 -3.5,-3 -2.5,-2 -3.5,-2 l -1,-0.5 q 0,0 -2,-1.5 -3,-2 -7,-5 -4,-3 -9,-7 -1,-1 -2,-1.5 l -1,-0.5 q -3,-2 -7,-6 l -1,-1 -1,-1 q -3,-2 -4,-4 l -2,-2 q 0,0 -2,-1 -2,-2 -3,-4 l -6,-6 q -4,-4 -8,-9 0,-1 -2.5,-3.5 -2.5,-2.5 -3.5,-4.5 l -0.5,-0.5 q 0,0 -0.5,-1.5 -5,-5 -6,-8 l -0.5,-0.5 -0.5,-0.5 q -7,-10 -11,-18 l -1.5,-1.5 q 0,0 -0.5,-1.5 -1,-1 -1.5,-3 -0.5,-2 -1.5,-4 -1,-2 -2,-3 v -1 q -3,-6 -5,-11 -3,-6 -5,-12 -2,-4 -4,-11 v -1 q 0,-1 -0.5,-3 -0.5,-2 -1.5,-2 0,-1 -0.5,-3.5 -0.5,-2.5 -0.5,-3.5 -1,0 -1,-0.5 v -0.5 l -2,-12 -2,-10 v -1 -1 q -1,-2 -2,-11 -1,-12 -1,-25 v -2.5 -3.5 -3 -1.5 -2.5 q 1,-5 1,-12 v -1 -1 l 1,-2 q 0,-4 1,-9 1,-5 2,-11 v -0.5 -1 -1.5 q 0,0 1,-2 0,-2 2,-8 0,-3 3,-10 v -1 -1 q 4,-13 7,-19 0,-1 0.5,-2 0.5,-1 0.5,-2 2,-3 4,-9 1,0 1,-1 0,-1 1,-1 2,-5 4,-9 2,-4 4,-7 0,-1 1.5,-3 1.5,-2 1.5,-3 3,-5 5,-7 l 1,-1 v -1 l 1,-1.5 q 0,0 1.5,-2 l 2.5,-2.5 q 1,-3 2,-4 l 0.5,-1 q 0,0 1.5,-1 1,-2 6,-8 4,-5 8,-9 l 2.5,-2.5 q 0,0 3.5,-4.5 l 0.5,-0.5 q 0,0 1.5,-0.5 2,-3 7,-7 l 1,-1 1,-1 q 1,-1 7,-6 v -1 q 5,-3 10,-7 v -1 l 1,-1.000004 q 2,-1 4.5,-2.5 l 2.5,-1.5 q 1,-1 2,-1.5 l 1,-0.5 q 8,-5 9,-6 l 1,-1 q 1,0 2,-1 1,-1 2,-1 4,-2 7,-4 10,-6 22,-10 v -1 q 9,-4 23,-8 7,-2 12,-3 6,-2 12,-3 l 12,-2 q 19,-3 38,-3 z m -26,36 q -23,3 -47,12 -55,20.000004 -92,64.500004 -37,44.5 -46,99 -9,54.5 9,112.5 31,83 111.5,120.5 80.5,37.5 164.5,7.5 49,-18 83.5,-56 34.5,-38 49.5,-86 -73,3 -135,-37.5 -62,-40.5 -88,-110.5 -23,-62 -8,-126.000004 h -1.5 z"
     id="path3833"
     inkscape:connector-curvature="0"
     style="fill:currentColor"
     inkscape:export-xdpi="96"
     inkscape:export-ydpi="96" />
</svg>
