<?xml version="1.0" standalone="no"?>
<!DOCTYPE svg PUBLIC "-//W3C//DTD SVG 1.1//EN" "http://www.w3.org/Graphics/SVG/1.1/DTD/svg11.dtd" >
<svg xmlns="http://www.w3.org/2000/svg" xmlns:xlink="http://www.w3.org/1999/xlink" version="1.1" viewBox="-10 0 810 1000">
   <path fill="currentColor"
d="M466 337q67 0 113.5 46.5t46.5 113.5q0 43 -22 81q46 38 46 97q0 52 -36.5 88.5t-88.5 36.5h-175h-150q-62 0 -106 -44t-44 -106q0 -56 36 -97.5t90 -50.5q24 -44 67.5 -71.5t95.5 -30.5q22 -29 55.5 -46t71.5 -17zM466 372q-47 0 -82 31q59 10 102.5 50.5t57.5 97.5
q16 3 30 9q18 -30 18 -63q0 -52 -37 -88.5t-89 -36.5zM350 435q-50 0 -91 27.5t-61 72.5q-47 1 -80 34.5t-33 80.5q0 48 33.5 81.5t81.5 33.5h325q37 0 63.5 -26.5t26.5 -63.5t-26.5 -63.5t-63.5 -26.5q-35 0 -61 23l-24 -24q29 -27 68 -33q-16 -51 -59.5 -83.5t-98.5 -32.5
zM416 200h1v0h1.5h0.5v1h2v1q1 0 2 1v1v0l1 1l31 87v0v1h1v1v0v1v0v0.5t-0.5 1l-0.5 0.5v0.5v1t-1 0.5v1l-0.5 0.5l-0.5 0.5h-1v0q-1 1 -2 1h-1l-31 6h-1v0h-1h-1q0 -1 -1 -1h-1h-1v-1v0h-1v-1q-1 0 -1 -0.5v-1v-0.5q-1 0 -1 -1v0v-1v-1v-92v-1v0v-1v0v-1h1v-1v0v-1h1v-1h1
v-1h1q1 0 1 -0.5t1 -0.5h1zM237 302l1 -1v0l0.5 -0.5l0.5 -0.5h1h2h1h1h1h1v1l80 46v0h1v1h1v0v1h0.5t0.5 1l0.5 0.5l0.5 0.5v0.5v1v0.5v0.5v0.5v1v0v1v1q-1 1 -2 1v1l-20 24l-1 1v0v0l-1 1h-1.5h-0.5v1h-1h-1h-0.5h-0.5v0h-1v-1h-1h-1v-1h-1v0q0 -1 -1 -1l-59 -71h-1v-1v0
v-1h-1v-1v0v-1v0v-1v-1v0v-1v0l1 -1v-1h1v-1zM748 601v1v0l-1 1v1h-1l-1 1h-1h-1h-1h-1h-1l-90 -16h-1v0h-1v0h-1v-1h-1v0l-0.5 -0.5t-0.5 -1t-0.5 -0.5h-0.5v-1l-1 -1v0v-1v0v-1v-1v-2h1l10 -30l1 -1v0v0l0.5 -0.5t0.5 -1v-0.5h1v-1h1h1v-1h1v0h1h1h1h1l1 1v0l80 46h1v1v0
h1v1h1v1v0l1 1v0v1v0v1v0v1v1v1v0v1h-1zM750 396v0v1v0.5v0.5v1q0 1 -1 1v1l-1 1q0 1 -1 1v0l-1 1l-80 46v0h-1v1h-1h-0.5h-1.5h-0.5h-0.5h-0.5h-1t-0.5 -1h-1l-0.5 -0.5l-0.5 -0.5v0l-1 -1q0 -1 -1 -2l-11 -30v-1v0v0v-1v-1v-1v0v-1v-1v0l1 -1v0v0l1 -1v0l1 -1v0h1v-1h1h1
l91 -16h1v0h1v0h1h1v0h1v1h1v0l1 1v0l1 1v1l1 1v1zM619 237v1v0q1 0 1 0.5v0.5h1v1v1v1q1 1 1 2l-0.5 0.5l-0.5 0.5v1l-31 86l-1 1v0v1l-1 1v0.5t-0.5 0.5h-1t-0.5 0.5v0.5h-1v0h-1v1h-1v0h-1h-1v0l-1 -1h-1h-1l-27 -16l-1 -1v0v0q-1 0 -1 -1l-1 -1v-1q-1 0 -1 -1v0v-1v0v0
v-1v-0.5v-1v-0.5q0 -1 1 -1v-1l1 -1l59 -71h1v0v-1h1v0l1 -1v0h1v0h1h1v0h1v0h1h1h1v1h1z" />
</svg>
