<?xml version="1.0" standalone="no"?>
<!DOCTYPE svg PUBLIC "-//W3C//DTD SVG 1.1//EN" "http://www.w3.org/Graphics/SVG/1.1/DTD/svg11.dtd" >
<svg xmlns="http://www.w3.org/2000/svg" xmlns:xlink="http://www.w3.org/1999/xlink" version="1.1" viewBox="-10 0 710 1000">
   <path fill="currentColor"
d="M447.5 648q7.5 0 12.5 5t5 12v77q0 8 -5 13t-12.5 5t-12.5 -5t-5 -13v-77q0 -7 5 -12t12.5 -5zM447.5 485q7.5 0 12.5 5t5 12v78q0 7 -5 12.5t-12.5 5.5t-12.5 -5.5t-5 -12.5v-78q0 -7 5 -12t12.5 -5zM350 688q7 0 12.5 5t5.5 12v77q0 5 -2.5 9t-6.5 6.5t-9 2.5
q-7 0 -12.5 -5t-5.5 -13v-77q0 -4 1.5 -7t4 -5.5t5.5 -3.5t7 -1zM252 648q8 0 13 5t5 12v77q0 8 -5 13t-12.5 5t-12.5 -5t-5 -13v-77q0 -5 2.5 -9t6.5 -6t8 -2zM350 525q7 0 12.5 5t5.5 12v78q0 7 -5.5 12.5t-12.5 5.5t-12.5 -5.5t-5.5 -12.5v-78q0 -7 5.5 -12t12.5 -5z
M350 200q70 0 124 43t70 108q45 7 75.5 42t30.5 82q0 52 -36.5 88.5t-88.5 36.5h-13v-35h13q37 0 63.5 -26.5t26.5 -63.5t-26.5 -63.5t-63.5 -26.5q-35 0 -61 23l-24 -24q29 -27 68 -33q-11 -33 -34 -59.5t-55.5 -41.5t-68.5 -15q-50 0 -91 27.5t-61 72.5q-47 1 -80 34.5
t-33 80.5q0 44 29.5 77t73.5 37v35q-58 -4 -98 -47t-40 -102q0 -56 36 -97.5t90 -50.5q26 -46 72.5 -74t101.5 -28zM252.5 485q7.5 0 12.5 5t5 12v78q0 7 -5 12.5t-13 5.5q-4 0 -8 -2.5t-6.5 -6.5t-2.5 -9v-78q0 -7 5 -12t12.5 -5z" />
</svg>
