<?xml version="1.0" standalone="no"?>
<!DOCTYPE svg PUBLIC "-//W3C//DTD SVG 1.1//EN" "http://www.w3.org/Graphics/SVG/1.1/DTD/svg11.dtd" >
<svg xmlns="http://www.w3.org/2000/svg" xmlns:xlink="http://www.w3.org/1999/xlink" version="1.1" viewBox="-10 0 710 1000">
   <path fill="currentColor"
d="M350 200q70 0 124 43t70 108q45 7 75.5 42t30.5 82q0 52 -36.5 88.5t-88.5 36.5h-20v-35h20q37 0 63.5 -26.5t26.5 -63.5t-26.5 -63.5t-63.5 -26.5q-35 0 -61 23l-24 -24q29 -27 68 -33q-11 -33 -34 -59.5t-55.5 -41.5t-68.5 -15q-50 0 -91 27.5t-61 72.5q-47 1 -80 34.5
t-33 80.5q0 46 32 79.5t78 35.5v35q-40 -1 -73 -21.5t-52.5 -54.5t-19.5 -74q0 -56 36 -97.5t90 -50.5q26 -46 72.5 -74t101.5 -28zM412 690h125q7 0 7 7.5t-7 7.5h-125q-8 0 -8 -7.5t8 -7.5zM436 748l63 -109q4 -6 10.5 -2.5t2.5 10.5l-63 108q-3 7 -9.5 3t-3.5 -10z
M499 755l-63 -108q-3 -7 3.5 -10.5t9.5 2.5l63 109q4 6 -2.5 10t-10.5 -3zM175 717l123 21q7 2 5.5 9t-8.5 6l-123 -22q-7 -1 -6 -8.5t9 -5.5zM189 778l80 -96q5 -6 10.5 -1t1.5 11l-81 95q-4 6 -10 1.5t-1 -10.5zM249 796l-43 -117q-2 -7 5 -10t9 4l43 118q3 7 -4 9.5
t-10 -4.5zM287 558l123 -22q8 -1 9 6t-6 9l-123 21q-8 2 -9 -5.5t6 -8.5zM322 610l42 -117q3 -7 10 -4.5t4 9.5l-42 118q-3 7 -10 4t-4 -10zM384 607l-80 -96q-5 -6 1 -10.5t11 1.5l80 95q5 6 -1 11t-11 -1z" />
</svg>
