<?xml version="1.0" standalone="no"?>
<!DOCTYPE svg PUBLIC "-//W3C//DTD SVG 1.1//EN" "http://www.w3.org/Graphics/SVG/1.1/DTD/svg11.dtd" >
<svg xmlns="http://www.w3.org/2000/svg" xmlns:xlink="http://www.w3.org/1999/xlink" version="1.1" viewBox="-10 0 694 1000">
   <path fill="currentColor"
d="M350.5 340q43.5 0 80.5 21.5t58.5 58.5t21.5 80q0 66 -47 113t-113.5 47t-113 -47t-46.5 -113q0 -43 21.5 -80t58 -58.5t80 -21.5zM350.5 375q-51.5 0 -88 36.5t-36.5 88.5t36.5 88.5t88 36.5t88.5 -36.5t37 -88.5t-37 -88.5t-88.5 -36.5zM300 203h1h1l0.5 0.5l0.5 0.5h1
l1 1h1q0 1 1 1v1v1h1v1l31 86l1 1v0v1v1v0.5v0.5v0.5v0.5v1h-1v0.5v0.5l-1 1v0v1h-1v0h-1v1h-2l-32 6h-1v0v0h-1h-1h-1v0l-1 -1h-1v-1h-1v0v-1h-1v-1v-1l-1 -1v-1v-1v-92v0v-1v-1v0q1 0 1 -1v-1v0h1v-1v0l1 -1v0h1v-1h1h1zM122 305v0v-1h1.5h0.5v-1h2h1h1l0.5 0.5t1.5 0.5v0
h1l79 46l1 1v0h1v1h1v1v0l0.5 0.5t0.5 1v0.5v0.5v0.5v1v0v1v1v0v1q-1 1 -1 2l-21 24v1h-1v0v1h-1l-1 1h-1h-1v0h-1v0h-1h-0.5h-0.5h-0.5t-0.5 -1h-1l-1 -1h-1v-1l-59 -70v-1h-1v-1v0v-1h-1v-1v0v-1v0v-1v0v-1v-1h1v-1v-1h1v-1h1zM50 498v-1v0l0.5 -0.5l0.5 -0.5v-1
q0 -1 1 -1v-1h1l1 -1h1v0h1l91 -16v-1h1h1v0h1l0.5 0.5l0.5 0.5h0.5h1t0.5 0.5v0.5h1v1v0h1v1v0q0 1 1 1v1v2v32v1v0v0v1v1q-1 0 -1 1v0l-1 1v1h-1v0v0l-1 1v0h-1h-1q0 1 -1 1v0h-1l-1 -1l-91 -16v0h-1v0h-1v0l-1 -1v0h-1v-1v0q-1 0 -1 -0.5v-0.5v-1h-1v-1v-1v-1v-1z
M119 692v-1h-1v-0.5v-1.5v0v-2v-1v-1l1 -1v-1h1l59 -71v0h1v-1v0h1v-1h1v0l0.5 -0.5l0.5 -0.5h1v0h1h1v0q1 0 1 1h1v0h1v1q1 0 2 1l20 24v1h1v1v0l1 1v1v1v1v0v1v0v1q-1 0 -1 0.5v1v0.5h-1v1h-1v1h-1l-80 46v1h-1v0h-1v0h-1h-1v0h-1h-1v0h-1v0l-1 -1l-0.5 -0.5l-0.5 -0.5z
M297 796h-1l-1 -1h-0.5h-0.5v-1q-1 0 -1 -1h-1v-1v-1l-1 -1v-1v-1v-92v0v-1v0v-1h1v-0.5v-1.5v0h1v-1l0.5 -0.5l0.5 -0.5v0h1v-1h1v0h1v0h1q1 -1 2 0l31 5h1h1v1h1t1 0.5t1 0.5q0 1 1 1v0v1v0v1l0.5 0.5l0.5 0.5v0.5v0.5v1v1v0v1h-1l-31 87v1h-1v1v0v1h-1v0l-1 1v0h-1v1v0
h-1h-1v0h-1h-1h-1zM499 761v1h-1h-0.5h-0.5h-1h-2v0q-1 -1 -2 -1l-0.5 -0.5l-0.5 -0.5v-1l-60 -70v-1v0l-1 -1v0v-1v0v-1l-0.5 -0.5t-0.5 -1v-0.5v-1h1v-1v0v-1v0l1 -1v0v-1q1 0 2 -1l28 -16h1v-1v0h1h1h1h2v0h1v1v0h1v0q0 1 1 1v0l1 1v1h1v1l31 87h1v1v0v1v1v1v0v1v0
q-1 0 -1 1v0v1v0h-1v1h-0.5t-0.5 1h-1h-1zM633 605h-1v1l-0.5 0.5l-0.5 0.5v0q-1 1 -2 1h-1q0 1 -1 1h-1h-1v0h-1l-90 -16h-1v-1h-1h-1v0v-1h-1v0h-1v-1v0v-1h-1v-1v0q0 -1 -1 -1v-1v0v-1v0q0 -1 1 -2v-1l11 -29v-1v0v-1v0l1 -1l1 -1v0l1 -1h1h0.5h0.5v0l1 -1v0h1h1q0 1 1 1
v0h1l1 1l79 46h1v0q1 0 1 1v0h1v1v0l1 1v0v1v1v0l1 1v0v1q-1 0 -1 1v1v1zM634 399v1v0v0.5v1.5v0q0 1 -1 2v1l-1 1l-1 1h-1l-80 46v0v1h-1v0h-1h-0.5h-0.5h-1h-1v0h-1v0h-1v-1h-1v0h-1v-1v0h-1v-1l-1 -1v-1l-11 -29v-1v0v-1v0v-1v-1v-1v-1h1v-1v-0.5v-0.5v0q1 0 1 -0.5v-0.5
h1v-1h1h1v-1h1l91 -16h1v0h1v0h1h1v1h1h1v1h1v0v1h1v1h1v1v1zM503 240v1h1v0.5t1 0.5v1q0 1 1 2v0v2v1h-1v1l-31 87v0l-1 1v0v1h-1v0.5v0.5h-1v0.5t-0.5 0.5t-1 0.5l-0.5 0.5h-1v0h-1v0h-1v0h-1v0q-1 0 -2 -1l-28 -16h-1v-1v0l-0.5 -0.5l-0.5 -0.5h-1v-1q0 -1 -1 -1v-1v0v-1
v0v-1v0v-1v-1h1v-1v0v-1h1v-1l59 -70l1 -1v0h1v-1v0h1v-1h1v0h1h1v0h1v0h1h1v1h1h1z" />
</svg>
