<?xml version="1.0" standalone="no"?>
<!DOCTYPE svg PUBLIC "-//W3C//DTD SVG 1.1//EN" "http://www.w3.org/Graphics/SVG/1.1/DTD/svg11.dtd" >
<svg xmlns="http://www.w3.org/2000/svg" xmlns:xlink="http://www.w3.org/1999/xlink" version="1.1" viewBox="-10 0 707 1000">
   <path fill="currentColor"
d="M134 200h92l-169 70q-4 -16 -7 -35zM395 200h92l-380 157q-12 -14 -22 -29zM647 204q-1 31 -25 48l-439 182q-16 -15 -27 -26zM537 358q2 14 8 34l-294 122q-8 -13 -21 -29zM563 455q4 19 5 36l-283 117q-2 -19 -6 -35zM559 565q-7 18 -22 39l-269 111q6 -15 10 -34z
M428 719q-27 29 -43 48l-80 33h-71z" />
</svg>
