<?xml version="1.0" standalone="no"?>
<!DOCTYPE svg PUBLIC "-//W3C//DTD SVG 20010904//EN"
 "http://www.w3.org/TR/2001/REC-SVG-20010904/DTD/svg10.dtd">
<svg version="1.0" xmlns="http://www.w3.org/2000/svg"
 width="512.000000pt" height="512.000000pt" viewBox="0 0 512.000000 512.000000"
 preserveAspectRatio="xMidYMid meet">

<g transform="translate(0.000000,512.000000) scale(0.100000,-0.100000)"
fill="#000000" stroke="none">
<path d="M2315 5109 c-800 -83 -1501 -518 -1927 -1196 -487 -774 -516 -1777
-75 -2578 200 -365 486 -675 841 -913 238 -159 600 -311 876 -366 214 -43 295
-51 530 -51 236 0 333 10 532 51 879 183 1616 843 1897 1699 93 282 126 493
126 805 0 301 -32 513 -116 775 -124 390 -330 728 -622 1024 -399 404 -893
653 -1462 737 -123 18 -478 26 -600 13z m485 -505 c844 -98 1543 -710 1755
-1538 281 -1097 -387 -2218 -1489 -2501 -555 -142 -1147 -44 -1626 269 -439
288 -746 715 -875 1220 -181 705 28 1454 549 1970 447 441 1062 653 1686 580z"/>
<path d="M2393 3669 c-128 -12 -279 -49 -360 -89 -114 -56 -154 -130 -133
-247 12 -69 51 -176 100 -272 l29 -59 76 24 c157 50 326 57 416 17 57 -25 70
-43 77 -98 4 -44 3 -48 -40 -89 -56 -53 -145 -86 -232 -86 -145 0 -172 -31
-163 -185 5 -95 33 -190 65 -217 12 -11 51 -18 127 -22 167 -10 244 -29 279
-67 25 -29 28 -37 24 -89 -5 -73 -32 -111 -106 -147 -53 -26 -66 -28 -172 -28
-127 1 -185 14 -307 70 l-72 33 -39 -66 c-83 -140 -145 -346 -123 -404 46
-119 416 -224 716 -204 269 19 442 89 573 232 104 113 154 247 155 414 2 239
-101 405 -318 515 l-66 33 50 36 c158 116 249 281 267 486 16 193 -66 345
-236 434 -132 70 -350 97 -587 75z"/>
</g>
</svg>
