<?xml version="1.0" standalone="no"?>
<!DOCTYPE svg PUBLIC "-//W3C//DTD SVG 20010904//EN"
 "http://www.w3.org/TR/2001/REC-SVG-20010904/DTD/svg10.dtd">
<svg version="1.0" xmlns="http://www.w3.org/2000/svg"
 width="512.000000pt" height="512.000000pt" viewBox="0 0 512.000000 512.000000"
 preserveAspectRatio="xMidYMid meet">

<g transform="translate(0.000000,512.000000) scale(0.100000,-0.100000)"
fill="#000000" stroke="none">
<path d="M2315 5109 c-800 -83 -1501 -518 -1927 -1196 -487 -774 -516 -1777
-75 -2578 200 -365 486 -675 841 -913 238 -159 600 -311 876 -366 214 -43 295
-51 530 -51 236 0 333 10 532 51 879 183 1616 843 1897 1699 93 282 126 493
126 805 0 301 -32 513 -116 775 -124 390 -330 728 -622 1024 -399 404 -893
653 -1462 737 -123 18 -478 26 -600 13z m485 -505 c844 -98 1543 -710 1755
-1538 281 -1097 -387 -2218 -1489 -2501 -555 -142 -1147 -44 -1626 269 -439
288 -746 715 -875 1220 -181 705 28 1455 549 1970 447 441 1062 653 1686 580z"/>
<path d="M2023 3645 c-12 -9 -27 -32 -33 -53 -14 -52 -14 -1031 1 -1069 6 -15
20 -38 31 -50 21 -22 27 -23 218 -23 194 0 197 0 251 -27 159 -81 160 -316 1
-406 -99 -55 -233 -46 -425 30 -48 19 -92 31 -98 27 -44 -27 -92 -349 -69
-459 11 -55 13 -58 63 -80 203 -93 586 -102 805 -19 192 72 355 233 418 412
83 241 39 542 -109 737 -102 135 -247 198 -488 211 l-119 7 0 109 0 108 303 0
c166 0 307 4 313 8 22 15 33 50 45 152 14 127 7 311 -15 363 l-15 37 -528 0
c-458 0 -531 -2 -550 -15z"/>
</g>
</svg>
