<?xml version="1.0" standalone="no"?>
<!DOCTYPE svg PUBLIC "-//W3C//DTD SVG 20010904//EN"
 "http://www.w3.org/TR/2001/REC-SVG-20010904/DTD/svg10.dtd">
<svg version="1.0" xmlns="http://www.w3.org/2000/svg"
 width="512.000000pt" height="512.000000pt" viewBox="0 0 512.000000 512.000000"
 preserveAspectRatio="xMidYMid meet">

<g transform="translate(0.000000,512.000000) scale(0.100000,-0.100000)"
fill="#000000" stroke="none">
<path d="M2315 5109 c-800 -83 -1501 -518 -1927 -1196 -487 -774 -516 -1777
-75 -2578 200 -365 486 -675 841 -913 238 -159 600 -311 876 -366 214 -43 295
-51 530 -51 236 0 333 10 532 51 879 183 1616 843 1897 1699 93 282 126 493
126 805 0 301 -32 513 -116 775 -124 390 -330 728 -622 1024 -399 404 -893
653 -1462 737 -123 18 -478 26 -600 13z m485 -505 c844 -98 1543 -710 1755
-1538 281 -1097 -387 -2218 -1489 -2501 -555 -142 -1147 -44 -1626 269 -439
288 -746 715 -875 1220 -181 705 28 1454 549 1970 447 441 1062 653 1686 580z"/>
<path d="M2573 3639 c-169 -15 -111 59 -508 -645 l-350 -619 0 -60 c1 -44 9
-77 30 -125 40 -88 86 -167 135 -229 l40 -51 310 0 310 0 0 -201 0 -200 38
-17 c31 -14 72 -17 247 -17 206 0 300 10 332 37 10 8 13 57 13 209 l0 199 99
0 c75 0 103 4 114 15 10 9 18 47 22 102 8 91 1 305 -10 335 -6 15 -24 18 -113
20 l-107 3 -5 625 -5 625 -250 1 c-137 1 -291 -2 -342 -7z m57 -929 l0 -320
-181 0 c-99 0 -179 4 -177 8 7 19 352 632 355 632 2 0 3 -144 3 -320z"/>
</g>
</svg>
