<?xml version="1.0" standalone="no"?>
<!DOCTYPE svg PUBLIC "-//W3C//DTD SVG 20010904//EN"
 "http://www.w3.org/TR/2001/REC-SVG-20010904/DTD/svg10.dtd">
<svg version="1.0" xmlns="http://www.w3.org/2000/svg"
 width="512.000000pt" height="512.000000pt" viewBox="0 0 512.000000 512.000000"
 preserveAspectRatio="xMidYMid meet">

<g transform="translate(0.000000,512.000000) scale(0.100000,-0.100000)"
fill="#000000" stroke="none">
<path d="M2315 5109 c-800 -83 -1501 -518 -1927 -1196 -487 -774 -516 -1777
-75 -2578 200 -365 486 -675 841 -913 238 -159 600 -311 876 -366 214 -43 295
-51 530 -51 236 0 333 10 532 51 879 183 1616 843 1897 1699 93 282 126 493
126 805 0 301 -32 513 -116 775 -124 390 -330 728 -622 1024 -399 404 -893
653 -1462 737 -123 18 -478 26 -600 13z m485 -505 c844 -98 1543 -710 1755
-1538 281 -1097 -387 -2218 -1489 -2501 -555 -142 -1147 -44 -1626 269 -439
288 -746 715 -875 1220 -181 705 28 1454 549 1970 447 441 1062 653 1686 580z"/>
<path d="M2365 3654 c-216 -31 -435 -121 -480 -196 -55 -93 -9 -275 111 -445
l44 -62 73 39 c169 90 351 104 420 32 137 -143 -20 -429 -546 -996 l-120 -128
6 -102 c10 -157 47 -271 103 -315 27 -21 30 -21 595 -19 l568 3 35 34 c74 72
92 160 81 386 l-7 148 -122 -6 c-66 -4 -206 -10 -311 -13 l-190 -6 93 87 c51
48 128 130 172 183 281 336 386 622 336 912 -41 234 -173 380 -403 441 -62 17
-114 22 -253 24 -96 2 -188 1 -205 -1z"/>
</g>
</svg>
