<?xml version="1.0" standalone="no"?>
<!DOCTYPE svg PUBLIC "-//W3C//DTD SVG 20010904//EN"
 "http://www.w3.org/TR/2001/REC-SVG-20010904/DTD/svg10.dtd">
<svg version="1.0" xmlns="http://www.w3.org/2000/svg"
 width="512.000000pt" height="512.000000pt" viewBox="0 0 512.000000 512.000000"
 preserveAspectRatio="xMidYMid meet">

<g transform="translate(0.000000,512.000000) scale(0.100000,-0.100000)"
fill="#000000" stroke="none">
<path d="M2315 5109 c-800 -83 -1501 -518 -1927 -1196 -487 -774 -516 -1777
-75 -2578 200 -365 486 -675 841 -913 238 -159 600 -311 876 -366 214 -43 295
-51 530 -51 236 0 333 10 532 51 879 183 1616 843 1897 1699 93 282 126 493
126 805 0 301 -32 513 -116 775 -124 390 -330 728 -622 1024 -399 404 -893
653 -1462 737 -123 18 -478 26 -600 13z m485 -505 c844 -98 1543 -710 1755
-1538 281 -1097 -387 -2218 -1489 -2501 -555 -142 -1147 -44 -1626 269 -439
288 -746 715 -875 1220 -181 705 28 1454 549 1970 447 441 1062 653 1686 580z"/>
<path d="M2086 3626 c-36 -35 -51 -120 -51 -291 0 -119 4 -161 19 -203 28 -83
36 -86 236 -77 l170 7 0 -774 0 -775 27 -12 c81 -37 521 -34 579 4 l24 15 0
1031 c0 647 -4 1037 -10 1048 -5 10 -28 26 -50 35 -35 14 -98 16 -481 16
l-440 0 -23 -24z"/>
</g>
</svg>
