<?xml version="1.0" standalone="no"?>
<!DOCTYPE svg PUBLIC "-//W3C//DTD SVG 20010904//EN"
 "http://www.w3.org/TR/2001/REC-SVG-20010904/DTD/svg10.dtd">
<svg version="1.0" xmlns="http://www.w3.org/2000/svg"
 width="1000.000000pt" height="1000.000000pt" viewBox="0 0 1000.000000 1000.000000"
 preserveAspectRatio="xMidYMid meet">

<g transform="translate(0.000000,1000.000000) scale(0.100000,-0.100000)"
fill="#000000" stroke="none">
<path d="M4892 8985 c-76 -21 -109 -41 -168 -99 -58 -58 -81 -98 -100 -171
-20 -72 -20 -1068 0 -1140 30 -113 107 -208 206 -254 49 -23 67 -26 170 -26
106 0 120 2 177 29 72 33 154 113 183 179 10 23 24 71 29 107 14 86 14 973 0
1060 -21 135 -96 236 -215 292 -80 37 -197 47 -282 23z"/>
<path d="M1705 7667 c-56 -19 -144 -76 -182 -121 -105 -119 -120 -308 -38
-465 30 -57 74 -104 311 -331 383 -367 454 -431 517 -463 158 -79 330 -49 447
80 110 120 128 314 43 463 -14 26 -183 204 -396 417 -426 428 -423 425 -571
430 -56 2 -107 -2 -131 -10z"/>
<path d="M8087 7669 c-90 -21 -128 -53 -443 -370 -389 -392 -419 -426 -457
-507 -95 -202 1 -457 198 -531 50 -19 75 -22 146 -19 142 7 179 30 442 281
122 116 294 283 382 372 185 185 204 218 213 363 7 121 -17 196 -90 284 -92
111 -246 161 -391 127z"/>
<path d="M4725 6479 c-410 -49 -836 -220 -1169 -468 -539 -401 -888 -1024
-947 -1691 -22 -255 -1 -556 57 -789 48 -192 157 -472 208 -529 l19 -22 422 0
c314 0 424 3 433 12 26 26 13 75 -37 142 -235 310 -341 614 -341 976 0 439
158 817 471 1131 316 316 711 479 1159 479 447 0 828 -158 1145 -475 274 -274
422 -583 464 -967 45 -411 -65 -794 -328 -1141 -52 -70 -66 -118 -39 -145 9
-9 119 -12 433 -12 485 0 429 -13 494 117 141 283 202 519 220 858 27 502 -84
951 -339 1375 -242 402 -575 709 -995 915 -239 117 -438 182 -680 221 -120 19
-530 27 -650 13z"/>
<path d="M369 4467 c-148 -62 -231 -157 -261 -301 -34 -162 68 -352 232 -430
l65 -31 560 0 560 0 57 27 c291 136 297 578 11 724 l-58 29 -555 2 -555 3 -56
-23z"/>
<path d="M8432 4469 c-69 -27 -164 -115 -197 -183 -91 -186 -28 -428 139 -533
81 -52 92 -53 657 -53 567 0 584 1 668 54 56 36 130 121 159 184 24 50 27 69
27 162 0 93 -3 112 -27 162 -37 80 -107 152 -187 191 l-66 32 -560 2 c-543 2
-562 2 -613 -18z"/>
<path d="M4882 3407 c-31 -29 -316 -296 -632 -593 l-574 -539 -581 -5 -580 -5
-58 -27 c-70 -33 -155 -112 -185 -171 -70 -140 -45 -318 60 -432 61 -67 120
-103 197 -121 74 -18 1403 -20 1460 -3 28 8 152 120 515 465 263 250 481 454
485 454 4 0 224 -204 490 -454 466 -439 484 -455 534 -466 37 -8 265 -10 772
-8 l720 3 58 23 c81 33 168 116 209 200 30 61 33 74 33 162 0 77 -4 104 -22
143 -48 104 -152 195 -254 222 -44 12 -160 15 -635 15 l-581 0 -621 574 c-342
316 -634 584 -648 595 -17 13 -41 21 -66 21 -34 0 -48 -8 -96 -53z"/>
</g>
</svg>
