<?xml version="1.0" standalone="no"?>
<!DOCTYPE svg PUBLIC "-//W3C//DTD SVG 20010904//EN"
 "http://www.w3.org/TR/2001/REC-SVG-20010904/DTD/svg10.dtd">
<svg version="1.0" xmlns="http://www.w3.org/2000/svg"
 width="1000.000000pt" height="1000.000000pt" viewBox="0 0 1000.000000 1000.000000"
 preserveAspectRatio="xMidYMid meet">

<g transform="translate(0.000000,1000.000000) scale(0.100000,-0.100000)"
fill="#000000" stroke="none">
<path d="M4910 9037 c-117 -27 -221 -112 -276 -222 l-29 -60 0 -580 0 -580 24
-50 c37 -75 130 -167 204 -201 55 -26 73 -29 162 -29 89 0 107 3 160 28 80 37
166 123 202 201 l28 61 0 575 0 575 -27 58 c-78 166 -274 264 -448 224z"/>
<path d="M1669 7696 c-103 -39 -187 -110 -228 -193 -30 -59 -44 -176 -32 -253
21 -127 36 -146 338 -443 437 -428 471 -460 549 -498 63 -31 76 -34 164 -34
84 0 102 3 152 28 80 39 170 133 215 223 32 66 35 79 31 141 -7 131 -14 141
-461 590 -456 459 -439 446 -597 450 -62 2 -107 -2 -131 -11z"/>
<path d="M8087 7699 c-20 -5 -54 -18 -75 -28 -53 -28 -805 -785 -831 -838 -49
-99 -47 -262 5 -365 98 -192 305 -260 502 -163 69 35 105 67 434 389 198 193
373 371 389 396 16 24 36 66 44 94 19 63 19 187 0 249 -27 90 -113 195 -195
237 -69 36 -189 49 -273 29z"/>
<path d="M4895 6533 c-322 -13 -650 -98 -944 -244 -263 -131 -427 -246 -624
-439 -212 -206 -338 -378 -473 -645 -188 -374 -267 -698 -266 -1095 1 -401 63
-701 212 -1013 53 -113 25 -107 503 -107 262 0 415 4 428 10 31 17 22 49 -39
134 -77 108 -111 164 -165 271 -245 491 -216 1115 74 1565 224 346 586 613
964 709 261 66 593 68 840 5 550 -141 1016 -597 1159 -1134 45 -165 59 -296
53 -480 -13 -358 -111 -637 -329 -935 -59 -81 -67 -102 -46 -123 17 -17 856
-17 879 1 35 27 140 263 188 424 67 226 93 417 93 683 0 311 -35 518 -139 815
-47 137 -167 378 -253 509 -379 580 -1014 982 -1690 1070 -121 15 -307 24
-425 19z"/>
<path d="M335 4486 c-69 -22 -100 -43 -162 -110 -84 -89 -106 -150 -101 -272
3 -74 9 -101 32 -148 38 -78 129 -169 203 -204 l58 -27 556 -3 c551 -2 558 -2
615 19 81 30 183 132 214 215 42 112 37 250 -12 348 -30 60 -101 129 -165 162
l-58 29 -570 2 c-440 2 -579 -1 -610 -11z"/>
<path d="M8429 4477 c-100 -42 -158 -98 -200 -192 -45 -101 -42 -247 5 -351
29 -63 115 -151 181 -184 l50 -25 580 0 580 0 55 29 c303 156 304 573 3 714
l-58 27 -570 2 -570 3 -56 -23z"/>
<path d="M2510 2296 c-77 -17 -130 -47 -189 -107 -117 -119 -149 -293 -79
-438 31 -65 125 -156 195 -189 l58 -27 581 -5 581 -5 124 -115 c697 -647 1126
-1038 1155 -1054 33 -18 35 -18 72 1 20 10 320 275 666 588 346 314 636 573
645 577 9 4 272 7 585 7 614 1 613 1 701 56 176 111 243 332 153 510 -34 65
-122 149 -191 181 l-62 29 -747 3 c-700 2 -750 1 -782 -15 -19 -10 -249 -218
-512 -463 -262 -245 -482 -445 -489 -445 -7 0 -226 202 -488 449 -261 247
-483 454 -493 460 -29 17 -1410 19 -1484 2z"/>
</g>
</svg>
